<svg width="44" height="58" viewBox="0 0 44 58" fill="none" xmlns="http://www.w3.org/2000/svg">
<path d="M28.0019 26.2603V5.76134C28.0019 3.18737 25.2272 1.56856 22.9865 2.83525L4.55235 13.2562C1.73932 14.8464 0 17.8277 0 21.0591V42.0244C0 44.6267 2.82978 46.2419 5.07047 44.9187L23.5963 33.9784C26.3266 32.366 28.0019 29.4311 28.0019 26.2603Z" fill="url(#paint0_linear_52_1198)" fill-opacity="0.35"/>
<path d="M34.162 30.4632V9.96422C34.162 7.39025 31.3873 5.77144 29.1466 7.03813L10.7125 17.4591C7.89948 19.0493 6.16016 22.0306 6.16016 25.262V46.2273C6.16016 48.8296 8.98994 50.4448 11.2306 49.1216L29.7565 38.1812C32.4868 36.5689 34.162 33.634 34.162 30.4632Z" fill="url(#paint1_linear_52_1198)" fill-opacity="0.81"/>
<path d="M39.7626 34.7547V14.54C39.7626 11.9454 36.9477 10.3291 34.7069 11.637L17.3258 21.7824C14.5732 23.389 12.8809 26.3364 12.8809 29.5235V50.1924C12.8809 52.8158 15.7522 54.428 17.992 53.0622L35.4657 42.4076C38.1344 40.7803 39.7626 37.8804 39.7626 34.7547Z" fill="#FD6901"/>
<path d="M43.4028 36.576V16.3613C43.4028 13.7667 40.5879 12.1504 38.3471 13.4583L20.9659 23.6037C18.2134 25.2103 16.521 28.1577 16.521 31.3448V52.0137C16.521 54.6371 19.3923 56.2493 21.6322 54.8835L39.1058 44.2289C41.7745 42.6016 43.4028 39.7017 43.4028 36.576Z" fill="#005BFF"/>
<path d="M43.2627 16.3613V36.576C43.2627 39.6528 41.6599 42.5075 39.0329 44.1093L21.5593 54.7639C19.4127 56.0728 16.661 54.5278 16.661 52.0137V31.3448C16.661 28.2075 18.327 25.3062 21.0365 23.7246L38.4177 13.5793C40.5651 12.3258 43.2627 13.8748 43.2627 16.3613Z" stroke="white" stroke-opacity="0.42" stroke-width="0.280106"/>
<path d="M35.8424 33.7634L30.1021 36.7054V33.4832L35.8424 30.261L37.3825 30.9615L35.8424 33.7634Z" fill="#FD6901"/>
<path d="M35.9488 30.205L36.1367 29.6772C35.9853 29.6233 35.818 29.637 35.6773 29.7149L35.9488 30.205ZM37.5226 30.7654L38.011 31.0397C38.0919 30.8957 38.1051 30.7234 38.0472 30.5688C37.9893 30.4142 37.8661 30.293 37.7105 30.2376L37.5226 30.7654ZM35.9488 33.5673L36.2202 34.0573C36.3112 34.007 36.3863 33.9323 36.4372 33.8416L35.9488 33.5673ZM24.0327 26.0581L24.3189 25.5765C24.1676 25.4866 23.9828 25.473 23.8199 25.5399L24.0327 26.0581ZM22.1216 26.8426L21.9088 26.3244C21.7449 26.3917 21.6225 26.5326 21.5787 26.7043C21.535 26.8759 21.575 27.0582 21.6867 27.1958L22.1216 26.8426ZM24.0327 29.1963L23.5978 29.5494C23.6394 29.6006 23.6897 29.6441 23.7464 29.6778L24.0327 29.1963ZM33.185 32.3762C33.4556 32.2263 33.5535 31.8853 33.4036 31.6147C33.2537 31.344 32.9128 31.2462 32.6421 31.3961L33.185 32.3762ZM34.1597 30.5555C33.8891 30.7054 33.7912 31.0463 33.9411 31.317C34.091 31.5876 34.4319 31.6855 34.7026 31.5356L34.1597 30.5555ZM27.2417 30.4519C26.9757 30.2938 26.632 30.3813 26.4739 30.6472C26.3158 30.9132 26.4033 31.257 26.6693 31.415L27.2417 30.4519ZM25.2078 30.5464C25.4738 30.7045 25.8176 30.6171 25.9756 30.3511C26.1337 30.0851 26.0463 29.7414 25.7803 29.5833L25.2078 30.5464ZM35.7609 30.7327L37.3347 31.2931L37.7105 30.2376L36.1367 29.6772L35.7609 30.7327ZM37.0342 30.491L35.4603 33.2929L36.4372 33.8416L38.011 31.0397L37.0342 30.491ZM30.4385 45.6716V36.9296H29.3181V45.6716H30.4385ZM30.4385 36.9296V33.5673H29.3181V36.9296H30.4385ZM35.6773 33.0772L29.6069 36.4395L30.1497 37.4197L36.2202 34.0573L35.6773 33.0772ZM30.4385 29.5325V27.8513H29.3181V29.5325H30.4385ZM30.1645 29.0509L24.3189 25.5765L23.7464 26.5397L29.5921 30.0141L30.1645 29.0509ZM23.8199 25.5399L21.9088 26.3244L22.3343 27.3609L24.2454 26.5763L23.8199 25.5399ZM21.6867 27.1958L23.5978 29.5494L24.4676 28.8431L22.5565 26.4895L21.6867 27.1958ZM30.4385 33.5673V32.6707H29.3181V33.5673H30.4385ZM30.4385 32.6707V29.5325H29.3181V32.6707H30.4385ZM30.1497 34.0573L33.185 32.3762L32.6421 31.3961L29.6069 33.0772L30.1497 34.0573ZM34.7026 31.5356L36.2202 30.695L35.6773 29.7149L34.1597 30.5555L34.7026 31.5356ZM26.6693 31.415L29.5921 33.1522L30.1645 32.1891L27.2417 30.4519L26.6693 31.415ZM23.7464 29.6778L25.2078 30.5464L25.7803 29.5833L24.3189 28.7147L23.7464 29.6778Z" fill="white"/>
<defs>
<linearGradient id="paint0_linear_52_1198" x1="17.5012" y1="3.78261" x2="13.9966" y2="51.9755" gradientUnits="userSpaceOnUse">
<stop stop-color="#D9D9D9" stop-opacity="0.54"/>
<stop offset="1" stop-color="#D9D9D9" stop-opacity="0"/>
<stop offset="1" stop-color="#D9D9D9" stop-opacity="0.2"/>
</linearGradient>
<linearGradient id="paint1_linear_52_1198" x1="20.1611" y1="11.0676" x2="20.1611" y2="54.6377" gradientUnits="userSpaceOnUse">
<stop stop-color="#0C2F61"/>
<stop offset="1" stop-color="#0C2F61" stop-opacity="0.2"/>
</linearGradient>
</defs>
</svg>
