<svg width="154" height="17" viewBox="0 0 154 17" fill="none" xmlns="http://www.w3.org/2000/svg">
<path d="M6.17864 3.68556H0.881031V2.10627H13.1355V3.68556H7.8179V16H6.17864V3.68556ZM19.6599 16.3798C18.5937 16.3798 17.6341 16.1399 16.7812 15.6602C15.9282 15.1804 15.2552 14.514 14.7621 13.6611C14.2823 12.8081 14.0558 11.8419 14.0824 10.7624C14.0957 9.73616 14.3623 8.79659 14.8821 7.94364C15.4018 7.09069 16.0948 6.41766 16.9611 5.92455C17.8274 5.41811 18.7736 5.16489 19.7998 5.16489C21.0393 5.16489 22.0788 5.4381 22.9184 5.98452C23.7714 6.51761 24.3978 7.2173 24.7976 8.08357C25.1974 8.93652 25.384 9.82945 25.3573 10.7624C25.3307 11.1755 25.2907 11.4554 25.2374 11.602H15.8216C15.8749 12.5749 16.2614 13.3479 16.9811 13.9209C17.7141 14.494 18.647 14.7806 19.7798 14.7806C20.5262 14.7806 21.1992 14.6273 21.7989 14.3208C22.412 14.0009 22.9184 13.6011 23.3182 13.1213L24.6776 13.9609C24.1845 14.6939 23.4915 15.2803 22.5986 15.7201C21.7056 16.1599 20.7261 16.3798 19.6599 16.3798ZM23.6781 10.0827C23.6781 9.53625 23.5248 9.00316 23.2183 8.48339C22.9251 7.96363 22.492 7.54382 21.9189 7.22396C21.3591 6.89078 20.7061 6.72419 19.9598 6.72419C18.9336 6.72419 18.0473 7.03072 17.301 7.64377C16.5546 8.2435 16.0748 9.05647 15.8616 10.0827H23.6781ZM34.3462 16.3798C33.2667 16.3798 32.3005 16.1333 31.4475 15.6402C30.5946 15.1471 29.9282 14.474 29.4484 13.6211C28.982 12.7681 28.7554 11.8152 28.7688 10.7624C28.7954 9.76282 29.062 8.83657 29.5684 7.98362C30.0748 7.11734 30.7612 6.43099 31.6275 5.92455C32.4937 5.41811 33.4666 5.16489 34.5461 5.16489C35.4791 5.16489 36.332 5.35814 37.105 5.74463C37.8913 6.13112 38.531 6.66421 39.0241 7.34391C39.5306 8.01027 39.8504 8.74994 39.9837 9.56291H38.4244C38.3311 9.06979 38.1112 8.61 37.7647 8.18353C37.4182 7.74373 36.9717 7.39722 36.4253 7.144C35.8789 6.87745 35.2725 6.74418 34.6061 6.74418C33.7932 6.74418 33.0601 6.93076 32.4071 7.30393C31.7541 7.67709 31.241 8.17687 30.8678 8.80325C30.508 9.41631 30.3214 10.0693 30.3081 10.7624C30.3081 11.562 30.4746 12.2684 30.8078 12.8814C31.141 13.4811 31.6208 13.9476 32.2472 14.2808C32.8736 14.614 33.5999 14.7806 34.4262 14.7806C35.4391 14.7806 36.2987 14.5007 37.005 13.9409C37.7114 13.3812 38.1912 12.6682 38.4444 11.8019H39.8837C39.7371 12.6815 39.3973 13.4678 38.8642 14.1608C38.3311 14.8539 37.6647 15.4003 36.8651 15.8001C36.0788 16.1866 35.2392 16.3798 34.3462 16.3798ZM51.9108 9.44296C51.9108 8.62999 51.6976 7.97696 51.2711 7.48384C50.8446 6.97741 50.2382 6.72419 49.4519 6.72419C48.6923 6.72419 47.9992 6.91077 47.3729 7.28393C46.7465 7.64377 46.2467 8.16354 45.8735 8.84323C45.5004 9.52292 45.3005 10.3226 45.2738 11.2421L44.4542 10.9823C44.4808 9.82279 44.734 8.80325 45.2138 7.92365C45.7069 7.04404 46.34 6.36435 47.113 5.88457C47.8993 5.40478 48.7322 5.16489 49.6118 5.16489C50.8913 5.16489 51.8642 5.56471 52.5305 6.36435C53.2102 7.15066 53.5501 8.33013 53.5501 9.90275V16H51.9108V9.44296ZM43.6345 1.08673H45.2738V16H43.6345V1.08673Z" fill="#005BFF"/>
<path d="M72.2785 9.86277L67.7205 16H65.6215L71.039 8.80325L66.1013 2.10627H68.3203L72.3385 7.70375L76.4566 2.10627H78.5756L73.5579 8.80325L79.1154 16H76.8364L72.2785 9.86277ZM85.7127 16.3798C84.4333 16.3798 83.4604 15.9867 82.794 15.2004C82.1277 14.4007 81.7945 13.2146 81.7945 11.642V5.54472H83.4138V12.0818C83.4138 12.8947 83.627 13.5544 84.0535 14.0609C84.48 14.5673 85.093 14.8205 85.8926 14.8205C86.6523 14.8205 87.3453 14.6406 87.9717 14.2808C88.5981 13.9076 89.0979 13.3812 89.471 12.7015C89.8442 12.0085 90.0441 11.2022 90.0708 10.2826L90.8704 10.5625C90.8437 11.7219 90.5839 12.7415 90.0908 13.6211C89.611 14.5007 88.9779 15.1804 88.1916 15.6602C87.4186 16.1399 86.5923 16.3798 85.7127 16.3798ZM90.0708 5.54472H91.69V16H90.0708V5.54472ZM96.8886 11.2421C96.9286 9.89609 97.1485 8.76993 97.5483 7.86367C97.9481 6.94409 98.4546 6.2644 99.0676 5.82459C99.6807 5.38479 100.34 5.16489 101.047 5.16489C101.766 5.16489 102.393 5.35814 102.926 5.74463C103.459 6.11779 103.859 6.6309 104.125 7.28393C104.405 7.93697 104.532 8.65665 104.505 9.44296H102.906C102.919 8.64332 102.746 7.99028 102.386 7.48384C102.04 6.97741 101.54 6.72419 100.887 6.72419C100.314 6.72419 99.7873 6.90411 99.3075 7.26394C98.8277 7.61045 98.4413 8.13022 98.1481 8.82324C97.8549 9.50293 97.6949 10.3092 97.6683 11.2421H96.8886ZM96.049 5.54472H97.6683V16H96.049V5.54472ZM112.998 16.3798C111.851 16.3798 110.859 16.2066 110.019 15.8601C109.179 15.5136 108.526 15.0538 108.06 14.4807C107.607 13.8943 107.36 13.2546 107.32 12.5616H108.999C109.119 13.2146 109.506 13.7677 110.159 14.2208C110.812 14.6606 111.751 14.8805 112.978 14.8805C113.791 14.8805 114.464 14.7872 114.997 14.6006C115.543 14.4007 115.936 14.1542 116.176 13.861C116.429 13.5544 116.543 13.2412 116.516 12.9214C116.489 12.6149 116.376 12.3683 116.176 12.1817C115.976 11.9951 115.616 11.8485 115.097 11.7419C114.59 11.622 113.844 11.5287 112.858 11.462C111.232 11.3554 110.026 11.0222 109.239 10.4625C108.466 9.90275 108.073 9.17641 108.06 8.28348C108.046 7.72374 108.22 7.21063 108.58 6.74418C108.953 6.2644 109.499 5.88457 110.219 5.60469C110.939 5.31149 111.811 5.16489 112.838 5.16489C113.851 5.16489 114.73 5.31815 115.476 5.62468C116.223 5.91788 116.816 6.33103 117.256 6.86412C117.709 7.39722 118.002 8.01694 118.135 8.72328H116.356C116.209 8.07025 115.843 7.56381 115.257 7.20397C114.67 6.83081 113.864 6.64422 112.838 6.64422C112.131 6.64422 111.552 6.73085 111.098 6.90411C110.659 7.06403 110.339 7.27727 110.139 7.54382C109.939 7.79704 109.852 8.06358 109.879 8.34346C109.932 8.82324 110.192 9.18974 110.659 9.44296C111.125 9.69618 111.878 9.84944 112.918 9.90275C114.237 9.96939 115.283 10.1293 116.056 10.3825C116.843 10.6224 117.402 10.9489 117.735 11.3621C118.082 11.7752 118.275 12.2817 118.315 12.8814C118.342 13.4545 118.169 14.0076 117.795 14.5407C117.436 15.0738 116.849 15.5136 116.036 15.8601C115.237 16.2066 114.224 16.3798 112.998 16.3798ZM122.471 5.54472H124.13V16H122.471V5.54472ZM123.351 3.66557C123.057 3.66557 122.784 3.60559 122.531 3.48565C122.291 3.35238 122.098 3.18578 121.951 2.98588C121.805 2.77264 121.731 2.53941 121.731 2.28619C121.731 2.03297 121.805 1.80641 121.951 1.6065C122.098 1.39326 122.291 1.22667 122.531 1.10672C122.784 0.97345 123.057 0.906813 123.351 0.906813C123.644 0.906813 123.91 0.97345 124.15 1.10672C124.39 1.22667 124.583 1.39326 124.73 1.6065C124.877 1.80641 124.95 2.03297 124.95 2.28619C124.95 2.53941 124.877 2.77264 124.73 2.98588C124.583 3.18578 124.39 3.35238 124.15 3.48565C123.91 3.60559 123.644 3.66557 123.351 3.66557ZM133.98 16.3798C132.901 16.3798 131.915 16.1333 131.022 15.6402C130.142 15.1337 129.442 14.454 128.923 13.6011C128.416 12.7348 128.156 11.7886 128.143 10.7624C128.143 9.72283 128.396 8.77659 128.903 7.92365C129.409 7.0707 130.095 6.39767 130.962 5.90456C131.841 5.41145 132.821 5.16489 133.9 5.16489C135.033 5.16489 136.039 5.41145 136.919 5.90456C137.799 6.39767 138.485 7.0707 138.978 7.92365C139.471 8.77659 139.724 9.72283 139.738 10.7624C139.738 11.7886 139.484 12.7348 138.978 13.6011C138.472 14.454 137.779 15.1337 136.899 15.6402C136.019 16.1333 135.047 16.3798 133.98 16.3798ZM133.86 14.7806C134.633 14.7806 135.333 14.6006 135.959 14.2408C136.599 13.881 137.099 13.3945 137.459 12.7815C137.832 12.1684 138.018 11.4954 138.018 10.7624C138.032 10.0027 137.872 9.31635 137.539 8.70329C137.206 8.09024 136.732 7.61045 136.119 7.26394C135.506 6.90411 134.807 6.72419 134.02 6.72419C133.234 6.72419 132.521 6.90411 131.881 7.26394C131.255 7.61045 130.755 8.0969 130.382 8.72328C130.022 9.33634 129.836 10.016 129.822 10.7624C129.809 11.5087 129.969 12.1884 130.302 12.8014C130.648 13.4145 131.128 13.9009 131.741 14.2608C132.368 14.6073 133.074 14.7806 133.86 14.7806ZM151.855 9.44296C151.855 8.62999 151.642 7.97696 151.216 7.48384C150.789 6.97741 150.176 6.72419 149.376 6.72419C148.617 6.72419 147.924 6.91077 147.297 7.28393C146.671 7.64377 146.171 8.16354 145.798 8.84323C145.425 9.52292 145.225 10.3226 145.198 11.2421L144.379 10.9823C144.405 9.82279 144.659 8.80325 145.138 7.92365C145.632 7.04404 146.265 6.36435 147.038 5.88457C147.824 5.40478 148.657 5.16489 149.536 5.16489C150.829 5.16489 151.809 5.56471 152.475 6.36435C153.141 7.15066 153.475 8.33013 153.475 9.90275V16H151.855V9.44296ZM143.579 5.54472H145.198V16H143.579V5.54472Z" fill="#FD6901"/>
</svg>
