<svg width="406" height="424" viewBox="0 0 406 424" fill="none" xmlns="http://www.w3.org/2000/svg">
<path fill-rule="evenodd" clip-rule="evenodd" d="M185.941 32.7252C187.679 27.5109 186.296 22.2392 183.439 17.698C180.585 13.1628 176.137 9.12056 171.185 6.07435C166.231 3.02648 160.601 0.869737 155.268 0.262391C149.958 -0.342395 144.61 0.567551 140.714 4.11469L140.367 4.43107C133.79 10.415 116.343 26.29 106.631 45.378C103.707 51.1252 101.442 57.2436 100.409 63.5315C90.6317 62.881 80.468 61.4272 70.202 59.1874C53.1668 55.4706 36.6384 47.5506 24.4087 39.389C18.2944 35.3085 13.3278 31.216 9.93618 27.6266C8.23818 25.8296 6.98568 24.2118 6.17798 22.8329C5.34385 21.4088 5.11923 20.4684 5.13052 19.9607L0.0705047 19.8482C0.0290651 21.713 0.773217 23.6195 1.81073 25.3909C2.87467 27.2073 4.39667 29.1334 6.25741 31.1027C9.98327 35.0458 15.2711 39.3757 21.5992 43.5988C34.2542 52.0444 51.3622 60.2572 69.1231 64.1323C79.5221 66.4012 89.8625 67.8906 99.8574 68.5671C99.7112 71.3088 99.8219 74.072 100.235 76.8406C101.876 87.8237 108.223 98.4991 121.32 107.995C126.672 111.875 134.675 114.44 143.803 116.56C150.293 118.068 157.589 119.398 165.205 120.786L165.205 120.786C168.358 121.361 171.566 121.946 174.794 122.557C197.072 126.778 220.552 132.324 237.067 144.667C266.591 166.732 282.326 194.393 293.212 225.484C298.664 241.056 302.89 257.461 307.03 274.466C307.814 277.684 308.594 280.925 309.38 284.185L309.382 284.195L309.382 284.196C312.737 298.124 316.177 312.404 320.292 326.806C336.645 384.042 366.998 402.672 381.233 404.539L381.891 399.52C370.399 398.013 341.197 381.551 325.159 325.415C321.076 311.125 317.666 296.972 314.313 283.051C313.524 279.777 312.738 276.516 311.948 273.268C307.804 256.248 303.529 239.636 297.989 223.812C286.89 192.113 270.675 163.466 240.097 140.613C222.523 127.479 197.921 121.787 175.736 117.585C172.417 116.956 169.158 116.362 165.978 115.782L165.978 115.782L165.977 115.782C158.419 114.404 151.314 113.109 144.948 111.63C135.856 109.518 128.745 107.127 124.291 103.897C112.082 95.0455 106.645 85.4923 105.241 76.0929C104.882 73.6868 104.783 71.2654 104.912 68.841C118.563 69.3939 131.46 68.3804 142.844 65.7119C163.813 60.7967 180.145 50.1134 185.941 32.7252ZM111.142 47.6731C108.468 52.9299 106.464 58.3511 105.498 63.7989C118.608 64.3015 130.91 63.3109 141.689 60.7842C161.815 56.0666 176.132 46.1467 181.14 31.1246C182.249 27.798 181.497 24.1169 179.155 20.3931C176.808 16.6634 172.993 13.1285 168.533 10.3852C164.077 7.64351 159.149 5.79833 154.696 5.29115C150.22 4.7814 146.552 5.64431 144.122 7.85719L143.867 8.08862C137.309 14.0579 120.428 29.4225 111.142 47.6731ZM403.597 399.607L405.386 401.397L403.597 403.186L383.352 423.431L379.773 419.852L398.228 401.397L379.773 382.941L383.352 379.362L403.597 399.607Z" fill="#005BFF"/>
</svg>
