<svg width="25" height="15" viewBox="0 0 25 15" fill="none" xmlns="http://www.w3.org/2000/svg">
<path fill-rule="evenodd" clip-rule="evenodd" d="M24.2659 1.18433C24.4319 0.638328 24.2659 0.236328 23.4709 0.236328H20.8459C20.1779 0.236328 19.8699 0.583328 19.7029 0.966328C19.7029 0.966328 18.3679 4.16233 16.4769 6.23833C15.8649 6.84033 15.5869 7.03133 15.2529 7.03133C15.0859 7.03133 14.8349 6.84033 14.8349 6.29333V1.18433C14.8349 0.528328 14.6509 0.236328 14.0949 0.236328H9.96692C9.54992 0.236328 9.29892 0.540328 9.29892 0.829328C9.29892 1.45033 10.2449 1.59433 10.3419 3.34233V7.14033C10.3419 7.97333 10.1889 8.12433 9.85492 8.12433C8.96492 8.12433 6.79992 4.91333 5.51492 1.23933C5.26592 0.524328 5.01392 0.236328 4.34292 0.236328H1.71592C0.965918 0.236328 0.815918 0.583328 0.815918 0.966328C0.815918 1.64833 1.70592 5.03633 4.96092 9.51733C7.13092 12.5773 10.1859 14.2363 12.9689 14.2363C14.6379 14.2363 14.8439 13.8683 14.8439 13.2333V10.9203C14.8439 10.1833 15.0019 10.0363 15.5309 10.0363C15.9209 10.0363 16.5879 10.2283 18.1459 11.7033C19.9259 13.4523 20.2189 14.2363 21.2209 14.2363H23.8459C24.5959 14.2363 24.9719 13.8683 24.7559 13.1403C24.5179 12.4163 23.6679 11.3653 22.5409 10.1183C21.9289 9.40833 21.0109 8.64333 20.7319 8.26033C20.3429 7.76933 20.4539 7.55033 20.7319 7.11333C20.7319 7.11333 23.9319 2.68733 24.2649 1.18433H24.2659Z" fill="white"/>
</svg>
