<svg width="506" height="483" viewBox="0 0 506 483" fill="none" xmlns="http://www.w3.org/2000/svg">
<path d="M2.4527 444.104L222.674 583.284C223.139 583.578 223.731 583.581 224.2 583.292L501.395 412.442C503.222 411.316 503.223 408.66 501.396 407.534L293.275 279.192C292.849 278.93 292.59 278.465 292.59 277.965V4.18519C292.59 2.50602 290.76 1.46753 289.318 2.32886L2.48341 173.73C2.04791 173.99 1.78125 174.46 1.78125 174.968V442.885C1.78125 443.38 2.03468 443.84 2.4527 444.104Z" fill="#115FF9" stroke="#271F40" stroke-width="2.85728"/>
<path d="M42.7517 448.48L148.199 515.897C148.663 516.194 149.256 516.2 149.726 515.913L405.807 359.809C406.734 359.244 406.728 357.896 405.796 357.34L298.649 293.398C298.193 293.126 297.624 293.126 297.169 293.4L42.7865 446.029C41.8687 446.58 41.8499 447.903 42.7517 448.48Z" fill="white" stroke="#271F40" stroke-width="2.85728"/>
<path d="M291.82 521.164L235.872 482.171C235.022 481.578 235.056 480.308 235.938 479.762L345.032 412.227C345.494 411.941 346.078 411.94 346.542 412.223L407.601 449.536C408.522 450.1 408.52 451.439 407.596 451.999L293.391 521.214C292.904 521.51 292.287 521.49 291.82 521.164Z" fill="white" stroke="#271F40" stroke-width="2.85728"/>
<path d="M17.7407 189.167V417.582C17.7407 418.142 18.3513 418.489 18.8318 418.201L277.703 263.23C278.138 262.97 278.405 262.5 278.405 261.993V38.8606C278.405 38.3054 277.803 37.9587 277.323 38.2365L18.4607 187.919C18.0151 188.176 17.7407 188.652 17.7407 189.167Z" fill="#115FF9" stroke="white" stroke-width="1.44167"/>
<path d="M129.455 410.708L243.784 338.094L358.113 410.708L243.784 475.597L129.455 410.708Z" fill="black" fill-opacity="0.26"/>
<path d="M135.947 357.439V222.759L249.648 287.292V422.526L135.947 357.439Z" fill="#FD6901" stroke="white" stroke-width="0.628054"/>
<path d="M363.977 357.439V222.759L250.276 287.292V422.526L363.977 357.439Z" fill="#FD6901" stroke="white" stroke-width="0.628054"/>
<path d="M249.962 286.748L136.29 222.231L247.992 163.863L363.627 222.236L249.962 286.748Z" fill="#FD6901" stroke="white" stroke-width="0.628054"/>
</svg>
